<?xml version="1.0" encoding="UTF-8"?>
<svg xmlns="http://www.w3.org/2000/svg" xmlns:xlink="http://www.w3.org/1999/xlink" xmlns:svg="http://www.w3.org/2000/svg" xmlns:sodipodi="http://sodipodi.sourceforge.net/DTD/sodipodi-0.dtd" xmlns:rdf="http://www.w3.org/1999/02/22-rdf-syntax-ns#" xmlns:inkscape="http://www.inkscape.org/namespaces/inkscape" xmlns:dc="http://purl.org/dc/elements/1.1/" xmlns:cc="http://creativecommons.org/ns#" version="1.1" viewBox="0 0 1000 203">
  <!-- Generator: Adobe Illustrator 29.2.1, SVG Export Plug-In . SVG Version: 2.1.0 Build 116)  -->
  <defs>
    <style>
      .st0 {
        fill: none;
        stroke: #fff;
        stroke-miterlimit: 26.5;
        stroke-width: 16.1px;
      }

      .st1 {
        fill: #ed1c24;
      }

      .st2 {
        fill: #fff;
      }
    </style>
  </defs>
  <g id="svg8" inkscape:version="0.92.4 (5da689c313, 2019-01-14)" sodipodi:docname="Monopoly Brand.svg">
    <sodipodi:namedview id="base" bordercolor="#666666" borderopacity="1.0" inkscape:current-layer="layer1" inkscape:cx="400" inkscape:cy="560" inkscape:document-units="px" inkscape:pageopacity="0.0" inkscape:pageshadow="2" inkscape:window-height="1017" inkscape:window-maximized="1" inkscape:window-width="1920" inkscape:window-x="-8" inkscape:window-y="-8" inkscape:zoom="0.35" pagecolor="#ffffff" showgrid="false" units="px"/>
    <g id="layer1" inkscape:groupmode="layer" inkscape:label="Layer 1">
      <g id="g12870">
        <g id="g1307">
          <path id="path1305" class="st1" d="M953.3,195.4H8.1V7.6h945.2v187.7Z" inkscape:connector-curvature="0"/>
        </g>
        <g id="g1339">
          <path id="path1337" class="st0" d="M953.3,195.4H8.1V7.6h945.2v187.7Z" inkscape:connector-curvature="0"/>
        </g>
        <g id="g1367">
          <path id="path1365" class="st2" d="M115.7,122.2c17.9-28.5,35.6-56.8,53.5-85.5,5,40.9,10,81.3,15,121.8-8.3,1.4-16.4,2.8-24.5,4.2-2.3-18.7-4.6-37.2-6.9-56.2-12.4,19.8-24.6,39.2-37,59-12.4-19.5-24.7-38.9-37-58.3-.1,0-.3,0-.4,0-2.2,18.5-4.3,37-6.5,55.7-8.2-1.4-16.2-2.8-24.5-4.2,4.7-40.5,9.4-80.9,14.1-121.2.1,0,.3,0,.4,0,17.9,28.2,35.7,56.3,53.7,84.7" inkscape:connector-curvature="0"/>
        </g>
        <g id="g1371">
          <path id="path1369" class="st2" d="M446,101.2c0,20.2,16.4,36.5,36.7,36.6,20.1,0,36.8-16.6,36.8-36.8,0-20.2-16.6-36.7-36.9-36.6-20.3,0-36.7,16.5-36.6,36.9M544.3,100.8c.2,33.7-27.5,61.7-60.9,62-34.7.3-61.9-27.4-62.6-60.2-.8-33.9,26.4-63.1,61.6-63.3,33.9-.2,61.8,27.5,62,61.5" inkscape:connector-curvature="0"/>
        </g>
        <g id="g1375">
          <path id="path1373" class="st2" d="M209.9,101.8c0,20.2,16.6,36.8,36.8,36.8,19.8,0,36.4-16.4,36.7-36,.3-20.1-15.6-36.8-35.5-37.5-20.7-.7-37.9,15.8-38,36.7M246.3,40c34.1,0,61.8,27.6,61.9,61.8,0,33.9-27.6,61.6-61.7,61.6-33.9,0-61.7-27.7-61.8-61.6,0-33.9,27.7-61.8,61.6-61.9" inkscape:connector-curvature="0"/>
        </g>
        <g id="g1379">
          <path id="path1377" class="st2" d="M735.7,100.3c0-20.3-16.5-36.7-36.7-36.6-20.4,0-36.7,16.5-36.7,36.8,0,20.3,16.7,36.9,36.9,36.7,20.3-.2,36.5-16.6,36.5-36.9M698.7,38.7c35.4,0,62,29.1,61.9,61.9,0,33.1-27.3,61.8-62.5,61.6-33.4-.2-61-28.1-61-61.7,0-34.1,27.7-61.8,61.6-61.8" inkscape:connector-curvature="0"/>
        </g>
        <g id="g1383">
          <path id="path1381" class="st2" d="M389.3,44.8c8.3-1.4,16.4-2.8,24.6-4.2.1,41.7.2,83.1.4,124.9-24.4-23.9-48.5-47.5-73-71.4,0,21.5.1,42.7.2,64-8.4,1.4-16.6,2.8-24.9,4.2-.1-41.6-.2-83.1-.4-124.9,24.5,23.9,48.7,47.7,73.3,71.7,0-21.7-.1-42.9-.2-64.3" inkscape:connector-curvature="0"/>
        </g>
        <g id="g1387">
          <path id="path1385" class="st2" d="M578,101.8c5.5,0,10.8.5,16.1-.2,8-.9,14.5-8.3,15.1-15.9.9-10.7-6-17.5-12.6-19.6-6.1-1.9-12.4-.6-18.7-1,0,12.4,0,24.6.1,36.7M552.9,41.8c3,0,5.8,0,8.7,0,9.5,0,18.9,0,28.4,0,20.9,0,38.3,14,42,34.5,4.3,23.8-11.9,44.7-33.4,48.5-5.8,1-11.8.6-17.7.9-.9,0-1.9,0-3,0,0,10.6,0,21.1,0,31.8-8.3,1.4-16.5,2.8-24.8,4.2-.1-39.9-.2-79.7-.4-119.8" inkscape:connector-curvature="0"/>
        </g>
        <g id="g1391">
          <path id="path1389" class="st2" d="M824.9,53.7c6.4-5.4,12.6-10.8,19.1-16.3,12.3,15,24.4,29.9,36.8,45.1,6.8-15.1,13.5-30,20.3-45,7.6,3.3,15.1,6.6,22.8,9.9-17,37.7-34,75.3-51,113.1-8.5-1.4-16.9-2.7-25.6-4.1,1.3-2.9,2.5-5.5,3.7-8.2,5.8-12.7,11.6-25.5,17.4-38.2.6-1.3.6-2.1-.3-3.3-14-17.1-27.9-34.2-41.8-51.4-.4-.5-.8-1-1.3-1.7" inkscape:connector-curvature="0"/>
        </g>
        <g id="g1395">
          <path id="path1393" class="st2" d="M792.8,134.2c9.1,0,17.9,0,26.8,0,8.7,0,17.5,0,26.4,0-.3.7-.4,1.2-.6,1.6-3.3,7.4-6.7,14.7-10,22.1-.5,1.1-1.1,1.4-2.3,1.4-21.1,0-42.2,0-63.2.2-.6,0-1.2,0-1.9,0-.1-38.6-.2-77-.3-115.6,8.2-1.4,16.5-2.8,24.9-4.2,0,31.7.2,63.1.3,94.7" inkscape:connector-curvature="0"/>
        </g>
      </g>
    </g>
  </g>
</svg>